<svg xmlns="http://www.w3.org/2000/svg" width="682.667" height="682.667" version="1.0" viewBox="0 0 512 512"><path d="M59 85.9C48.6 89.1 43 96.5 43 107c0 8.4 5.3 16.1 13.2 19.4 3.3 1.4 19.7 1.6 146.6 1.6h142.8l5.3-2.6c12.7-6.4 15.5-21.9 5.9-32.8-7.1-8.1 3.9-7.6-154.7-7.5-77.3 0-141.7.4-143.1.8zM53.9 237.3c-2.4 1.3-5.7 4.3-7.4 6.6-2.7 3.9-3 5-3 12 0 6.8.3 8.2 2.7 11.7 1.5 2.1 4.4 5 6.5 6.4l3.7 2.5h399.2l3.7-2.5c2.1-1.4 5-4.3 6.5-6.4 2.4-3.5 2.7-4.9 2.7-11.6 0-6.7-.3-8.1-2.7-11.6-1.5-2.1-4.4-5-6.5-6.4l-3.7-2.5-198.6-.3-198.7-.2-4.4 2.3zM56 385.6c-7.8 3.4-13 11.1-13 19.4 0 8.8 3.8 15.2 11.5 19.3l4 2.2h182l4.7-2.8c8.4-4.9 12.4-14.9 9.7-24.4-1.6-5.9-7.8-12.4-13.5-14.1-3.1-.9-25.5-1.2-93-1.2-77.2.1-89.4.3-92.4 1.6z"/></svg>